<svg width="16" height="16" viewBox="0 0 16 16" fill="none" xmlns="http://www.w3.org/2000/svg">
<rect width="16" height="16" rx="8" fill="#030303"/>
<path d="M10.192 5.488C10.7467 5.488 11.1867 5.656 11.512 5.992C11.8427 6.328 12.008 6.79467 12.008 7.392V10H10.648V7.576C10.648 7.288 10.5707 7.06667 10.416 6.912C10.2667 6.752 10.0587 6.672 9.792 6.672C9.52533 6.672 9.31467 6.752 9.16 6.912C9.01067 7.06667 8.936 7.288 8.936 7.576V10H7.576V7.576C7.576 7.288 7.49867 7.06667 7.344 6.912C7.19467 6.752 6.98667 6.672 6.72 6.672C6.45333 6.672 6.24267 6.752 6.088 6.912C5.93867 7.06667 5.864 7.288 5.864 7.576V10H4.496V5.536H5.864V6.096C6.00267 5.90933 6.184 5.76267 6.408 5.656C6.632 5.544 6.88533 5.488 7.168 5.488C7.504 5.488 7.80267 5.56 8.064 5.704C8.33067 5.848 8.53867 6.05333 8.688 6.32C8.84267 6.07467 9.05333 5.87467 9.32 5.72C9.58667 5.56533 9.87733 5.488 10.192 5.488Z" fill="white"/>
</svg>
